HIERARCHY
ROOT Hips
{
	OFFSET 0.000000 0.000000 0.000000 
	CHANNELS 6 Xposition Yposition Zposition Zrotation Yrotation Xrotation
	JOINT Chest
	{
		OFFSET 0.000000 1.099998 0.000000 
		CHANNELS 3 Zrotation Yrotation Xrotation
		JOINT Chest2
		{
			OFFSET 0.000000 1.399994 0.000000 
			CHANNELS 3 Zrotation Yrotation Xrotation
			JOINT Neck
			{
				OFFSET 0.000000 0.699997 0.000000 
				CHANNELS 3 Zrotation Yrotation Xrotation
				JOINT Head
				{
					OFFSET -0.000000 0.637970 -0.262853 
					CHANNELS 3 Zrotation Yrotation Xrotation
					End Site
					{
						OFFSET 0.000000 0.728172 1.465234 
					}
				}
			}
			JOINT LeftCollar
			{
				OFFSET -0.000000 0.199997 -0.180000 
				CHANNELS 3 Zrotation Yrotation Xrotation
				JOINT LeftShoulder
				{
					OFFSET 1.099999 -0.001328 -0.000000 
					CHANNELS 3 Zrotation Yrotation Xrotation
					JOINT LeftElbow
					{
						OFFSET 1.499819 -0.002594 -0.023143 
						CHANNELS 3 Zrotation Yrotation Xrotation
						JOINT LeftWrist
						{
							OFFSET 1.499819 -0.002594 0.023143 
							CHANNELS 3 Zrotation Yrotation Xrotation
							End Site
							{
								OFFSET 0.999879 -0.001732 0.015429 
							}
						}
					}
				}
			}
			JOINT RightCollar
			{
				OFFSET -0.000000 0.199997 -0.180000 
				CHANNELS 3 Zrotation Yrotation Xrotation
				JOINT RightShoulder
				{
					OFFSET -1.099999 -0.001328 0.000000 
					CHANNELS 3 Zrotation Yrotation Xrotation
					JOINT RightElbow
					{
						OFFSET -1.499819 -0.002594 -0.023143 
						CHANNELS 3 Zrotation Yrotation Xrotation
						JOINT RightWrist
						{
							OFFSET -1.499819 -0.002594 0.023143 
							CHANNELS 3 Zrotation Yrotation Xrotation
							End Site
							{
								OFFSET -0.999879 -0.001732 0.015429 
							}
						}
					}
				}
			}
		}
	}
	JOINT LeftHip
	{
		OFFSET 0.630197 -0.009087 -0.020000 
		CHANNELS 3 Zrotation Yrotation Xrotation
		JOINT LeftKnee
		{
			OFFSET 0.176607 -2.192711 0.029023 
			CHANNELS 3 Zrotation Yrotation Xrotation
			JOINT LeftAnkle
			{
				OFFSET 0.176607 -2.192711 -0.029023 
				CHANNELS 3 Zrotation Yrotation Xrotation
				End Site
				{
					OFFSET 0.000000 0.000000 1.000000 
				}
			}
		}
	}
	JOINT RightHip
	{
		OFFSET -0.630197 -0.009087 -0.020000 
		CHANNELS 3 Zrotation Yrotation Xrotation
		JOINT RightKnee
		{
			OFFSET -0.176607 -2.192711 0.029023 
			CHANNELS 3 Zrotation Yrotation Xrotation
			JOINT RightAnkle
			{
				OFFSET -0.176607 -2.192711 -0.029023 
				CHANNELS 3 Zrotation Yrotation Xrotation
				End Site
				{
					OFFSET 0.000000 0.000000 1.000000 
				}
			}
		}
	}
}
MOTION
Frames: 6
Frame Time: 0.016667
-1.098270 6.177819 -0.483555 3.303908 0.946182 -2.592884 -3.282380 -0.553920 1.525087 -1.365531 0.146587 -7.482383 0.460067 1.130007 20.361485 -0.126118 0.306097 -12.106465 -2.720040 -2.853359 0.012299 -53.051472 6.745536 -21.161011 174.845245 -67.197678 -179.764603 7.320730 -8.871120 11.753910 8.614947 -0.610147 -0.048062 82.102676 -13.011580 0.921012 3.893531 20.255131 -0.036606 5.607264 12.452330 69.432442 -3.239262 -0.008905 -0.835365 0.147235 1.156346 14.513550 7.428888 13.609970 -5.813922 0.420391 0.060098 -1.363576 -0.138235 -1.120988 14.060380 -8.479612 -4.599113 -8.741737 
-1.103786 6.178170 -0.483139 3.389284 0.980363 -2.570755 -3.474125 -0.745649 1.534030 -1.360939 0.176169 -7.479621 0.580768 1.446645 20.691444 -0.156085 0.378825 -12.035754 -2.757653 -2.944468 0.013815 -52.655499 6.297013 -18.942801 174.845947 -67.125130 -179.765503 7.157931 -10.042470 11.953990 8.611925 -0.646812 -0.052329 82.217018 -13.252540 1.001354 3.893297 20.602840 -0.037292 5.286085 12.380160 69.932243 -3.248456 -0.024664 -1.012122 0.147179 1.156122 14.510670 7.407345 13.922500 -6.044392 0.292952 0.067960 -1.430560 -0.138410 -1.121693 14.069400 -8.619123 -4.402174 -9.378398 
-1.108233 6.177930 -0.481209 3.445172 1.017895 -2.570837 -3.586118 -0.790686 1.557129 -1.361274 0.183329 -7.470786 0.651533 1.657645 20.702385 -0.174979 0.424679 -12.034269 -2.765018 -2.979620 0.014156 -52.341591 6.064276 -17.899481 174.847443 -66.981117 -179.767105 6.641582 -10.586080 12.558570 8.614594 -0.652943 -0.053389 82.296387 -13.210650 1.021879 3.893344 20.529591 -0.037147 4.958183 12.477430 70.317123 -3.254878 -0.036391 -1.143970 0.147288 1.156547 14.516130 7.404197 14.259890 -6.308960 0.222465 0.071949 -1.463802 -0.138540 -1.122210 14.076010 -8.720865 -4.171198 -9.686629 
-1.112947 6.175903 -0.472795 3.501218 1.074026 -2.593485 -3.708299 -0.754836 1.590962 -1.374079 0.178359 -7.468214 0.727999 1.917294 20.558155 -0.197210 0.478634 -12.066128 -2.758734 -2.992089 0.013939 -51.975510 5.918650 -16.962130 174.851547 -66.586456 -179.771500 5.904406 -10.933340 13.317510 8.620127 -0.640893 -0.052936 82.392723 -13.013800 1.064681 3.893518 20.275240 -0.036646 4.542130 12.700340 70.710342 -3.289039 -0.043673 -1.232282 0.147813 1.158566 14.542040 7.414552 14.915090 -6.760940 0.155906 0.070466 -1.436330 -0.138730 -1.122972 14.085780 -8.866885 -3.674580 -9.997927 
-1.115930 6.173540 -0.463226 3.536219 1.112891 -2.619509 -3.742204 -0.685075 1.609747 -1.356299 0.166590 -7.475167 0.794478 2.159704 20.418907 -0.217025 0.526724 -12.097116 -2.757181 -2.977007 0.013274 -51.856670 5.949934 -16.522060 174.854645 -66.276527 -179.774902 5.394164 -10.993290 13.652990 8.617726 -0.619550 -0.050851 82.383453 -13.027270 1.111718 3.893416 20.426001 -0.036943 4.274508 12.679220 71.056068 -3.329507 -0.050366 -1.315453 0.148482 1.161140 14.575080 7.433557 15.517520 -7.114560 0.124311 0.067669 -1.399790 -0.138899 -1.123632 14.094230 -8.974076 -3.280408 -10.163510 
-1.117322 6.171628 -0.454691 3.553483 1.132143 -2.650626 -3.675871 -0.587727 1.626933 -1.337587 0.150710 -7.471997 0.832670 2.338995 20.166077 -0.230967 0.560561 -12.152696 -2.746118 -2.946782 0.012349 -51.890560 6.029263 -17.025961 174.854141 -66.322220 -179.774399 4.819737 -10.377320 14.381390 8.613171 -0.588793 -0.048103 82.283119 -13.058260 1.202338 3.893235 20.687860 -0.037460 4.129116 12.517660 71.322601 -3.368657 -0.059192 -1.421290 0.148945 1.162925 14.597970 7.471560 15.983470 -7.326052 0.155838 0.067029 -1.398039 -0.138948 -1.123839 14.096880 -9.013674 -3.044654 -10.091340 
